<svg width="32" height="32" viewBox="0 0 32 32" fill="none" xmlns="http://www.w3.org/2000/svg">
<path fill-rule="evenodd" clip-rule="evenodd" d="M16 1.66667C13.5627 1.66667 11.548 1.88134 9.99733 2.14267L9.81867 2.17334C8.472 2.39867 7.352 2.58667 6.476 3.66401C5.916 4.35601 5.73333 5.10401 5.692 5.93734L5.036 6.15601C4.41867 6.36134 3.876 6.54267 3.448 6.74267C2.984 6.95867 2.55867 7.23601 2.23333 7.68801C1.908 8.13867 1.77867 8.63067 1.72 9.13867C1.66667 9.60934 1.66667 10.1787 1.66667 10.8307V11.024C1.66667 11.56 1.66667 12.0333 1.70667 12.4293C1.74933 12.8573 1.844 13.2747 2.08 13.6773C2.31867 14.0813 2.636 14.3667 2.99067 14.612C3.31733 14.8387 3.73067 15.0693 4.2 15.3293L7.72 17.2853C8.44 18.7 9.428 19.9613 10.7867 20.872C11.9693 21.6667 13.3893 22.1653 15.0707 22.2973C15.0239 22.4149 14.9999 22.5402 15 22.6667V25H13.0933C12.5539 25 12.0311 25.187 11.614 25.529C11.1968 25.871 10.9111 26.347 10.8053 26.876L10.5133 28.3333H8C7.73478 28.3333 7.48043 28.4387 7.29289 28.6262C7.10536 28.8138 7 29.0681 7 29.3333C7 29.5986 7.10536 29.8529 7.29289 30.0404C7.48043 30.228 7.73478 30.3333 8 30.3333H24C24.2652 30.3333 24.5196 30.228 24.7071 30.0404C24.8946 29.8529 25 29.5986 25 29.3333C25 29.0681 24.8946 28.8138 24.7071 28.6262C24.5196 28.4387 24.2652 28.3333 24 28.3333H21.4867L21.1947 26.876C21.0889 26.347 20.8032 25.871 20.386 25.529C19.9689 25.187 19.4461 25 18.9067 25H17V22.6667C17.0001 22.5402 16.9761 22.4149 16.9293 22.2973C18.6107 22.164 20.0307 21.6667 21.2133 20.8733C22.5733 19.9613 23.56 18.7 24.28 17.2853L27.8 15.3293C28.2693 15.0693 28.6827 14.8387 29.0093 14.612C29.3627 14.3667 29.6813 14.0813 29.9187 13.6787C30.156 13.2747 30.252 12.8573 30.2933 12.4293C30.3333 12.0333 30.3333 11.56 30.3333 11.024V10.8307C30.3333 10.18 30.3333 9.60934 30.28 9.13867C30.2213 8.63067 30.0933 8.13867 29.7667 7.68801C29.4413 7.23601 29.016 6.95867 28.5533 6.74134C28.1227 6.54134 27.5813 6.36134 26.964 6.15601L26.308 5.93734C26.268 5.10267 26.0853 4.35601 25.524 3.66401C24.6493 2.58534 23.5293 2.39734 22.1827 2.17334L22.0027 2.14267C20.0185 1.81741 18.0106 1.65819 16 1.66667ZM19.4467 28.3333L19.2333 27.268C19.2182 27.1925 19.1774 27.1245 19.1179 27.0756C19.0583 27.0268 18.9837 27.0001 18.9067 27H13.0933C13.0163 27.0001 12.9417 27.0268 12.8821 27.0756C12.8226 27.1245 12.7818 27.1925 12.7667 27.268L12.5533 28.3333H19.4467ZM5.71733 8.03734L5.736 8.03067C5.832 10.0573 6.06 12.2973 6.63067 14.3907L5.20933 13.6027C4.69067 13.3133 4.36533 13.132 4.13067 12.9693C3.91467 12.8187 3.844 12.7293 3.80533 12.6627C3.76533 12.596 3.72267 12.492 3.696 12.2307C3.66773 11.8144 3.65795 11.3971 3.66667 10.98V10.8827C3.66667 10.164 3.668 9.70934 3.70667 9.36534C3.744 9.04801 3.80267 8.92934 3.856 8.85734C3.908 8.78401 4.00133 8.69067 4.29067 8.55601C4.60533 8.40934 5.03733 8.26534 5.71733 8.03734ZM26.264 8.02934C26.1693 10.056 25.94 12.296 25.3707 14.3893L26.7907 13.6013C27.3093 13.312 27.6347 13.1307 27.8693 12.968C28.0853 12.8173 28.156 12.728 28.1947 12.6613C28.2347 12.5947 28.2773 12.4907 28.304 12.2293C28.332 11.944 28.3333 11.572 28.3333 10.9787V10.8813C28.3333 10.1627 28.332 9.70801 28.2933 9.36401C28.256 9.04667 28.1973 8.92801 28.144 8.85601C28.092 8.78267 27.9987 8.68934 27.7093 8.55467C27.3947 8.40801 26.9627 8.26267 26.2827 8.03467L26.264 8.02934ZM10.3307 4.11467C12.2047 3.80806 14.1011 3.6582 16 3.66667C18.32 3.66667 20.2227 3.87067 21.6693 4.11467C23.2787 4.38667 23.616 4.48801 23.972 4.92534C24.3213 5.35467 24.3547 5.76267 24.2827 7.56934C24.1627 10.58 23.7653 13.8307 22.536 16.3027C21.928 17.5213 21.1333 18.5187 20.1 19.212C19.072 19.9013 17.7453 20.3333 16 20.3333C14.2547 20.3333 12.9293 19.9013 11.9013 19.212C10.8667 18.5187 10.072 17.5213 9.46533 16.3013C8.23467 13.8307 7.83867 10.5813 7.71867 7.56801C7.64667 5.76267 7.67867 5.35467 8.02933 4.92534C8.384 4.48801 8.72133 4.38667 10.3307 4.11467Z" fill="white"/>
</svg>
