<svg width="33" height="30" viewBox="0 0 33 30" fill="none" xmlns="http://www.w3.org/2000/svg">
<path d="M1 16.4375L16.4375 1L31.875 16.4375" stroke="white" stroke-width="2" stroke-linecap="round" stroke-linejoin="round"/>
<path d="M4.43056 13.007V26.7292C4.43056 27.1841 4.61127 27.6204 4.93295 27.9421C5.25463 28.2637 5.69092 28.4445 6.14584 28.4445H11.2917C11.7466 28.4445 12.1829 28.2637 12.5046 27.9421C12.8262 27.6204 13.0069 27.1841 13.0069 26.7292V19.8681C13.0069 19.4131 13.1877 18.9769 13.5093 18.6552C13.831 18.3335 14.2673 18.1528 14.7222 18.1528H18.1528C18.6077 18.1528 19.044 18.3335 19.3657 18.6552C19.6873 18.9769 19.8681 19.4131 19.8681 19.8681V26.7292C19.8681 27.1841 20.0488 27.6204 20.3705 27.9421C20.6921 28.2637 21.1284 28.4445 21.5833 28.4445H26.7292C27.1841 28.4445 27.6204 28.2637 27.9421 27.9421C28.2637 27.6204 28.4444 27.1841 28.4444 26.7292V13.007" stroke="white" stroke-width="2" stroke-linecap="round" stroke-linejoin="round"/>
</svg>
