<svg width="35" height="34" viewBox="0 0 35 34" fill="none" xmlns="http://www.w3.org/2000/svg">
<circle cx="30.8748" cy="22.6973" r="3" fill="white"/>
<path d="M33.6982 13.697C34.5264 12.9661 34.6054 11.7023 33.8746 10.874C33.1437 10.0458 31.8799 9.96683 31.0516 10.6977L33.6982 13.697ZM6.37508 26.1973C8.3715 26.0776 8.3715 26.0776 8.3715 26.0777C8.3715 26.0776 8.3715 26.0776 8.37149 26.0774C8.37148 26.0772 8.37145 26.0767 8.37141 26.076C8.37133 26.0747 8.3712 26.0725 8.37102 26.0695C8.37067 26.0635 8.37012 26.0542 8.3694 26.0416C8.36795 26.0166 8.36579 25.9788 8.36303 25.929C8.3575 25.8294 8.34956 25.6821 8.34006 25.4938C8.32105 25.1169 8.29583 24.5764 8.2712 23.9257C8.22186 22.6216 8.17538 20.8868 8.18518 19.1444C8.19508 17.3852 8.26233 15.6874 8.42598 14.4301C8.50948 13.7887 8.60572 13.3648 8.68823 13.1329C8.73002 13.0154 8.73738 13.037 8.67516 13.1222C8.61658 13.2023 8.37722 13.4985 7.89543 13.6283L6.85462 9.76611C6.14289 9.95791 5.69451 10.4216 5.44614 10.7613C5.19411 11.1061 5.03087 11.4794 4.91957 11.7923C4.69589 12.4211 4.55592 13.1727 4.45945 13.9138C4.26315 15.4218 4.19539 17.318 4.18524 19.1219C4.17501 20.9426 4.22346 22.7397 4.27406 24.077C4.29941 24.7469 4.32542 25.3043 4.34514 25.6953C4.355 25.8908 4.3633 26.0449 4.36918 26.1507C4.37211 26.2036 4.37445 26.2445 4.37606 26.2725C4.37687 26.2865 4.3775 26.2972 4.37794 26.3047C4.37816 26.3084 4.37833 26.3113 4.37845 26.3134C4.37851 26.3144 4.37856 26.3152 4.3786 26.3158C4.37862 26.3161 4.37863 26.3164 4.37864 26.3165C4.37866 26.3168 4.37867 26.3169 6.37508 26.1973ZM7.89543 13.6283C7.37632 13.7682 7.11202 13.5412 7.46578 13.7079C7.70166 13.819 8.05455 14.0323 8.53828 14.3731C9.5056 15.0546 10.6735 16.0116 12.0045 17.0743C13.2926 18.1028 14.7118 19.2118 16.052 20.0649C16.7246 20.493 17.4215 20.8855 18.1093 21.1759C18.7785 21.4584 19.5619 21.6974 20.3751 21.6975L20.3751 17.6975C20.3134 17.6975 20.0917 17.671 19.6649 17.4908C19.2567 17.3185 18.7665 17.0511 18.2 16.6905C17.062 15.9661 15.7948 14.982 14.5003 13.9485C13.2488 12.9492 11.9379 11.8752 10.8421 11.1031C10.2943 10.7172 9.71953 10.348 9.17069 10.0894C8.73974 9.88636 7.83363 9.50228 6.85462 9.76611L7.89543 13.6283ZM20.3751 21.6975C21.8008 21.6975 23.3806 20.9925 24.6843 20.2813C26.0834 19.5182 27.554 18.5233 28.8685 17.5614C30.1907 16.5939 31.3946 15.6306 32.2656 14.9114C32.702 14.551 33.0572 14.25 33.3045 14.0381C33.4282 13.932 33.525 13.8481 33.5917 13.7901C33.6251 13.7611 33.6509 13.7385 33.6688 13.7228C33.6777 13.715 33.6847 13.7089 33.6896 13.7045C33.692 13.7024 33.694 13.7006 33.6954 13.6994C33.6961 13.6987 33.6967 13.6982 33.6972 13.6978C33.6974 13.6976 33.6977 13.6974 33.6978 13.6973C33.698 13.6971 33.6982 13.697 32.3749 12.1973C31.0516 10.6977 31.0518 10.6976 31.0518 10.6975C31.0518 10.6975 31.0519 10.6974 31.0519 10.6975C31.0518 10.6975 31.0516 10.6977 31.0513 10.698C31.0507 10.6985 31.0495 10.6995 31.0479 10.701C31.0446 10.7038 31.0393 10.7085 31.0321 10.7148C31.0176 10.7275 30.9952 10.7471 30.9655 10.773C30.906 10.8248 30.8168 10.902 30.7012 11.0011C30.47 11.1993 30.1338 11.4843 29.7187 11.827C28.8866 12.5141 27.7467 13.4258 26.5064 14.3334C25.2585 15.2465 23.9479 16.1267 22.7689 16.7698C21.4946 17.4649 20.6994 17.6975 20.3751 17.6975L20.3751 21.6975Z" fill="white"/>
</svg>
