<svg width="32" height="32" viewBox="0 0 32 32" fill="none" xmlns="http://www.w3.org/2000/svg">
<path d="M16 3.33334C17.5681 3.33286 19.0951 3.83506 20.3569 4.76624C21.6186 5.69741 22.5486 7.00851 23.0104 8.50711C23.4722 10.0057 23.4414 11.6129 22.9227 13.0927C22.4039 14.5725 21.4244 15.8471 20.128 16.7293C22.3782 17.5547 24.3299 19.0346 25.7319 20.9786C27.1339 22.9226 27.9219 25.2417 27.9947 27.6373C28.0015 27.7703 27.9816 27.9033 27.9364 28.0285C27.8911 28.1537 27.8212 28.2686 27.7309 28.3665C27.6406 28.4644 27.5317 28.5432 27.4105 28.5984C27.2894 28.6536 27.1584 28.6841 27.0253 28.688C26.8922 28.6919 26.7597 28.6692 26.6355 28.6212C26.5113 28.5732 26.3979 28.5008 26.302 28.4085C26.2062 28.3161 26.1297 28.2054 26.0772 28.0831C26.0246 27.9608 25.997 27.8292 25.996 27.696C25.9166 25.0979 24.8287 22.6329 22.9629 20.8232C21.0971 19.0136 18.5999 18.0015 16.0007 18.0015C13.4014 18.0015 10.9043 19.0136 9.03844 20.8232C7.17261 22.6329 6.08473 25.0979 6.00533 27.696C5.99738 27.9612 5.88439 28.2124 5.69123 28.3943C5.49806 28.5762 5.24055 28.674 4.97533 28.666C4.71012 28.6581 4.45892 28.5451 4.27701 28.3519C4.0951 28.1587 3.99738 27.9012 4.00533 27.636C4.07833 25.2405 4.86653 22.9217 6.26848 20.978C7.67044 19.0343 9.622 17.5546 11.872 16.7293C10.5756 15.8471 9.59611 14.5725 9.07734 13.0927C8.55856 11.6129 8.52782 10.0057 8.98961 8.50711C9.45141 7.00851 10.3814 5.69741 11.6431 4.76624C12.9049 3.83506 14.4319 3.33286 16 3.33334ZM10.6667 10.6667C10.6667 12.0812 11.2286 13.4377 12.2288 14.4379C13.229 15.4381 14.5855 16 16 16C17.4145 16 18.771 15.4381 19.7712 14.4379C20.7714 13.4377 21.3333 12.0812 21.3333 10.6667C21.3333 9.25219 20.7714 7.89563 19.7712 6.89544C18.771 5.89525 17.4145 5.33334 16 5.33334C14.5855 5.33334 13.229 5.89525 12.2288 6.89544C11.2286 7.89563 10.6667 9.25219 10.6667 10.6667Z" fill="white"/>
</svg>
