<svg width="41" height="38" viewBox="0 0 41 38" fill="none" xmlns="http://www.w3.org/2000/svg">
<path d="M14.3582 5.00003C14.5823 5.00161 14.7996 5.07122 14.977 5.19818C15.1543 5.32515 15.2819 5.50248 15.3401 5.70303L21.5783 27.1787L26.6931 11.3764C26.7547 11.186 26.8793 11.0183 27.0492 10.897C27.2191 10.7756 27.4258 10.7068 27.6402 10.7001C27.8546 10.6933 28.0658 10.7491 28.2442 10.8596C28.4225 10.97 28.559 11.1295 28.6344 11.3156L31.4613 18.3H35.875C36.1468 18.3 36.4076 18.4001 36.5998 18.5783C36.792 18.7564 36.9 18.9981 36.9 19.25C36.9 19.502 36.792 19.7436 36.5998 19.9218C36.4076 20.0999 36.1468 20.2 35.875 20.2H30.75C30.5415 20.2 30.338 20.1411 30.1666 20.0311C29.9951 19.9211 29.864 19.7653 29.7906 19.5844L27.7816 14.6216L22.507 30.9236C22.443 31.1217 22.311 31.2951 22.1311 31.4174C21.9512 31.5397 21.7331 31.6042 21.5101 31.6012C21.287 31.5982 21.071 31.5278 20.895 31.4007C20.719 31.2736 20.5926 31.0968 20.5349 30.897L14.3213 9.50303L11.234 19.5103C11.173 19.7087 11.044 19.8833 10.8665 20.0078C10.689 20.1322 10.4726 20.1997 10.25 20.2H5.125C4.85315 20.2 4.59244 20.0999 4.40022 19.9218C4.20799 19.7436 4.1 19.502 4.1 19.25C4.1 18.9981 4.20799 18.7564 4.40022 18.5783C4.59244 18.4001 4.85315 18.3 5.125 18.3H9.47715L13.364 5.68973C13.4254 5.48977 13.5559 5.31402 13.7355 5.18944C13.9151 5.06485 14.1339 4.99831 14.3582 5.00003Z" fill="white"/>
</svg>
